<?xml version="1.0" encoding="UTF-8"?>
<svg width="600" height="400" viewBox="0 0 600 400" fill="none" xmlns="http://www.w3.org/2000/svg">
  <!-- Background Books -->
  <rect x="50" y="100" width="80" height="250" rx="5" fill="#FF7597" opacity="0.8"/>
  <rect x="140" y="50" width="80" height="300" rx="5" fill="#6B4EE0" opacity="0.9"/>
  <rect x="230" y="150" width="80" height="200" rx="5" fill="#FF7597" opacity="0.7"/>
  <rect x="320" y="80" width="80" height="270" rx="5" fill="#6B4EE0" opacity="0.8"/>
  <rect x="410" y="120" width="80" height="230" rx="5" fill="#FF7597" opacity="0.9"/>
  
  <!-- Book Details -->
  <g transform="translate(140, 50)">
    <rect width="80" height="300" rx="5" fill="#6B4EE0"/>
    <rect x="10" y="20" width="60" height="4" rx="2" fill="white" opacity="0.8"/>
    <rect x="10" y="30" width="40" height="4" rx="2" fill="white" opacity="0.6"/>
    <rect x="10" y="270" width="50" height="4" rx="2" fill="white" opacity="0.7"/>
  </g>
  
  <!-- Reading Progress Circle -->
  <circle cx="450" cy="200" r="40" stroke="#FF7597" stroke-width="8" fill="none"/>
  <path d="M 450 160 A 40 40 0 1 1 450 240 A 40 40 0 0 1 450 160" 
        stroke="#6B4EE0" stroke-width="8" fill="none"/>
        
  <!-- Decorative Elements -->
  <circle cx="100" cy="50" r="10" fill="#FF7597" opacity="0.5"/>
  <circle cx="500" cy="350" r="15" fill="#6B4EE0" opacity="0.5"/>
  <circle cx="300" cy="30" r="8" fill="#FF7597" opacity="0.6"/>
</svg> 